<svg width="1350" height="175" viewBox="0 0 1350 175" fill="none" xmlns="http://www.w3.org/2000/svg">
<path d="M0.891602 1.99517V4.21914H20.6602V167.804H0.891602V170.028H61.68C75.518 170.028 87.6262 168.051 98.4989 163.85C109.372 159.897 118.515 153.966 125.928 146.553C133.341 139.14 138.777 130.491 142.731 120.112C146.685 109.734 148.662 98.367 148.662 86.0116C148.662 73.6563 146.685 62.5364 142.731 52.1579C138.777 41.7794 133.341 32.8836 125.928 25.4703C118.515 18.0571 109.372 12.3737 98.4989 8.17285C87.6262 4.21914 75.518 1.99517 61.68 1.99517H0.891602ZM61.68 167.804H23.1313V4.21914H61.68C75.0238 4.21914 86.8849 6.19598 97.5105 10.1497C107.889 14.1034 116.785 19.5398 123.951 26.7059C131.117 33.872 136.553 42.5207 140.507 52.405C144.214 62.5364 146.191 73.6563 146.191 86.0116C146.191 98.367 144.214 109.734 140.507 119.618C136.553 129.75 131.117 138.398 123.951 145.564C116.785 152.731 107.889 158.167 97.5105 162.121C87.132 166.074 75.0238 167.804 61.68 167.804Z" fill="#7B90FF"/>
<path d="M266.03 26.7059H268.254V1.99517H156.067V4.21914H175.836V167.804H156.067V170.028H271.713V145.317H269.489V167.804H178.307V86.0116H258.617V83.7877H178.307V4.21914H266.03V26.7059Z" fill="#7B90FF"/>
<path d="M271.706 1.99517V4.21914H288.015L354.487 174.229H354.981L421.7 4.21914H438.256V1.99517H398.719V4.21914H419.229L354.734 168.051L290.486 4.21914H311.243V1.99517H271.706Z" fill="#7B90FF"/>
<path d="M549.354 26.7059H551.578V1.99517H439.391V4.21914H459.16V167.804H439.391V170.028H555.037V145.317H552.813V167.804H461.631V86.0116H541.94V83.7877H461.631V4.21914H549.354V26.7059Z" fill="#7B90FF"/>
<path d="M563.678 1.99517V4.21914H583.447V167.804H563.678V170.028H672.9V145.317H670.676V167.557H585.918V4.21914H605.686V1.99517H563.678Z" fill="#7B90FF"/>
<path d="M756.279 0.265414C744.418 0.265414 733.298 2.48938 722.919 6.69021C712.541 11.1381 703.398 17.0687 695.491 24.4819C687.583 32.1422 681.653 41.2852 677.205 51.6637C672.757 62.2893 670.533 73.6563 670.533 86.0116C670.533 98.367 672.757 109.981 677.205 120.36C681.653 130.985 687.583 140.128 695.491 147.541C703.398 155.202 712.541 161.132 722.919 165.333C733.298 169.781 744.418 171.758 756.279 171.758C768.14 171.758 779.26 169.781 789.638 165.333C800.017 161.132 808.913 155.202 816.82 147.541C824.728 140.128 830.905 130.985 835.353 120.36C839.801 109.981 842.025 98.367 842.025 86.0116C842.025 73.6563 839.801 62.2893 835.353 51.6637C830.905 41.2852 824.728 32.1422 816.82 24.4819C808.913 17.0687 800.017 11.1381 789.638 6.69021C779.26 2.48938 768.14 0.265414 756.279 0.265414ZM756.279 169.534C744.665 169.534 733.792 167.557 723.661 163.356C713.529 159.402 704.634 153.719 697.22 146.306C689.807 138.893 683.877 130.244 679.429 119.865C674.981 109.734 673.004 98.367 673.004 86.0116C673.004 73.6563 674.981 62.5364 679.429 52.1579C683.877 42.0265 689.807 33.3778 697.22 25.9646C704.634 18.5513 713.529 12.8679 723.661 8.66705C733.792 4.71335 744.665 2.48938 756.279 2.48938C767.646 2.48938 778.519 4.71335 788.65 8.66705C798.534 12.8679 807.43 18.5513 815.09 25.9646C822.504 33.3778 828.434 42.0265 832.882 52.1579C837.33 62.5364 839.554 73.6563 839.554 86.0116C839.554 98.367 837.33 109.734 832.882 119.865C828.434 130.244 822.504 138.893 815.09 146.306C807.43 153.719 798.534 159.402 788.65 163.356C778.519 167.557 767.646 169.534 756.279 169.534Z" fill="#7B90FF"/>
<path d="M849.415 1.99517V4.21914H869.184V167.804H849.415V170.028H891.423V167.804H871.655V95.4017H914.899C923.547 95.4017 931.208 94.4133 937.632 91.9422C944.057 89.4711 949.494 86.2587 953.942 82.0579C958.142 77.8571 961.355 72.9149 963.579 67.2315C965.556 61.548 966.791 55.3703 966.791 48.4513C966.791 42.0265 965.556 35.8488 963.579 30.1654C961.355 24.4819 958.142 19.5398 953.694 15.3389C949.246 11.1381 943.81 7.92574 937.385 5.45467C930.961 3.23071 923.3 1.99517 914.651 1.99517H849.415ZM871.655 93.1777V4.21914H914.651C923.053 4.21914 930.219 5.45467 936.397 7.67864C942.575 9.9026 947.764 12.8679 951.965 16.8216C955.918 20.7753 959.131 25.4703 961.108 30.9067C963.084 36.3431 964.32 42.2736 964.32 48.4513C964.32 54.8761 963.084 60.5596 961.108 65.9959C959.131 71.4323 955.918 76.3744 951.965 80.3282C948.011 84.2819 942.822 87.4943 936.644 89.7182C930.466 92.1893 923.3 93.1777 914.899 93.1777H871.655Z" fill="#7B90FF"/>
<path d="M1082.94 26.7059H1085.17V1.99517H972.978V4.21914H992.747V167.804H972.978V170.028H1088.62V145.317H1086.4V167.804H995.218V86.0116H1075.53V83.7877H995.218V4.21914H1082.94V26.7059Z" fill="#7B90FF"/>
<path d="M1097.27 1.99517V4.21914H1117.03V167.804H1097.27V170.028H1139.27V167.804H1119.51V94.4133H1163.74H1167.69C1168.93 94.4133 1170.16 94.4133 1171.64 94.1662L1219.58 170.028H1239.85V167.804H1220.82L1174.12 93.919C1187.95 92.1893 1198.33 87 1205.25 78.5984C1212.17 70.1968 1215.63 60.0654 1215.63 47.9571C1215.63 41.5323 1214.39 35.3546 1212.42 29.6712C1210.19 23.9877 1206.98 19.0456 1202.53 15.0918C1198.09 11.1381 1192.65 7.92574 1186.22 5.45467C1179.8 3.23071 1172.14 1.99517 1163.49 1.99517H1097.27ZM1119.51 92.1893V4.21914H1163.49C1171.89 4.21914 1179.06 5.45467 1185.24 7.67864C1191.41 9.9026 1196.6 12.8679 1200.8 16.8216C1204.76 20.7753 1207.97 25.2232 1209.95 30.6596C1211.92 36.096 1213.16 41.7794 1213.16 47.9571C1213.16 54.3819 1211.92 60.0654 1209.95 65.5017C1207.97 70.9381 1204.76 75.6331 1200.8 79.5868C1196.85 83.5405 1191.66 86.7529 1185.48 88.9769C1179.31 91.2009 1172.14 92.1893 1163.74 92.1893H1119.51Z" fill="#7B90FF"/>
<path d="M1331.96 36.5902H1334.18V1.99517H1331.96V25.7174C1329.98 17.81 1325.53 11.6323 1318.62 6.93731C1311.7 2.48938 1303.3 0.0183105 1293.41 0.0183105C1287.97 0.0183105 1283.03 1.00674 1278.34 2.73648C1273.64 4.46624 1269.69 6.93731 1266.23 9.9026C1262.77 12.8679 1260.05 16.5745 1258.07 20.7753C1256.1 24.9761 1255.11 29.4241 1255.11 34.3662C1255.11 39.8026 1255.6 44.4976 1257.09 48.4513C1258.57 52.405 1260.55 56.1116 1263.51 59.324C1266.23 62.7835 1269.94 65.7488 1274.38 68.7141C1278.83 71.6794 1284.02 74.3976 1289.95 77.3629L1303.3 84.0348C1310.21 87.4943 1316.14 90.9538 1321.09 93.919C1326.03 97.1314 1329.98 100.344 1333.44 103.803C1336.65 107.263 1339.13 111.217 1340.61 115.417C1342.09 119.618 1343.08 124.313 1343.08 129.75C1343.08 141.611 1338.88 151.248 1330.97 158.661C1322.82 166.074 1311.2 169.534 1296.38 169.534C1288.96 169.534 1282.29 168.545 1276.11 166.569C1269.94 164.592 1264.5 161.626 1260.05 157.673C1255.36 153.966 1251.65 149.518 1248.93 144.082C1245.97 138.893 1244.48 132.962 1244.48 126.537H1242.26V170.028H1244.48V139.634C1245.72 143.34 1247.7 147.047 1250.41 150.754C1252.89 154.707 1256.34 158.167 1260.55 161.132C1264.75 164.345 1269.94 167.063 1275.87 169.04C1281.8 171.016 1288.47 172.005 1296.38 172.005C1304.04 172.005 1310.96 171.016 1317.13 168.793C1323.06 166.816 1328.25 163.85 1332.45 160.144C1336.65 156.437 1339.87 151.989 1342.09 146.8C1344.31 141.611 1345.55 135.927 1345.55 129.75C1345.55 124.066 1344.56 119.124 1343.08 114.676C1341.35 110.228 1338.88 106.274 1335.67 102.568C1332.21 99.1083 1328.01 95.6488 1322.82 92.4364C1317.63 89.224 1311.45 85.7645 1304.53 82.0579L1291.19 75.386C1285.26 72.4207 1280.31 69.7025 1276.11 66.9844C1271.91 64.2662 1268.45 61.3009 1265.73 58.3356C1262.77 55.3703 1260.79 51.9108 1259.56 47.9571C1258.07 44.0034 1257.58 39.5555 1257.58 34.3662C1257.58 29.4241 1258.32 24.9761 1260.3 21.0224C1262.28 17.0687 1264.75 13.8563 1267.96 11.1381C1271.17 8.41995 1274.88 6.19598 1279.33 4.71335C1283.77 3.23071 1288.47 2.48938 1293.41 2.48938C1299.84 2.48938 1305.27 3.47781 1309.97 5.45467C1314.66 7.43152 1318.62 9.9026 1321.83 12.8679C1324.79 16.0803 1327.26 19.7869 1328.99 23.7406C1330.48 27.9414 1331.47 32.1422 1331.96 36.5902Z" fill="#7B90FF"/>
<path d="M708.895 85.3629C708.707 85.3629 708.555 85.3411 708.439 85.2976C708.323 85.2686 708.265 85.2107 708.265 85.1237C708.265 85.0222 708.323 84.9425 708.439 84.8845C708.555 84.8265 708.736 84.7758 708.982 84.7323C709.533 84.6308 709.953 84.4568 710.243 84.2104C710.533 83.9494 710.678 83.558 710.678 83.0361V74.5989C710.678 73.932 710.664 73.4246 710.635 73.0767C710.606 72.7143 710.555 72.4606 710.483 72.3156C710.425 72.1706 710.338 72.0909 710.222 72.0764C710.019 72.0329 709.801 72.0112 709.569 72.0112C709.352 71.9967 709.055 71.9894 708.678 71.9894H707.656C707.308 71.9894 706.96 72.0619 706.612 72.2069C706.279 72.3374 706.032 72.5476 705.873 72.8375C705.829 72.91 705.757 73.0187 705.655 73.1637C705.554 73.2942 705.445 73.4101 705.329 73.5116C705.213 73.6131 705.097 73.6638 704.981 73.6638C704.923 73.6638 704.88 73.6348 704.851 73.5769C704.836 73.5189 704.829 73.4536 704.829 73.3811C704.829 73.2362 704.865 73.0912 704.938 72.9462C705.141 72.5258 705.285 72.1562 705.372 71.8372C705.474 71.5038 705.554 71.1124 705.612 70.663C705.641 70.4165 705.691 70.2715 705.764 70.2281C705.851 70.1846 705.923 70.1628 705.981 70.1628C706.039 70.1628 706.126 70.2498 706.242 70.4238C706.373 70.5977 706.467 70.7427 706.525 70.8587C706.612 71.0036 706.808 71.1124 707.112 71.1849C707.431 71.2573 707.743 71.2936 708.047 71.2936H715.702C716.209 71.2936 716.622 71.2646 716.941 71.2066C717.26 71.1486 717.535 71.0689 717.767 70.9674C717.941 70.8804 718.079 70.7862 718.181 70.6847C718.296 70.5832 718.441 70.5325 718.615 70.5325C718.659 70.5325 718.695 70.5905 718.724 70.7065C718.753 70.8079 718.768 70.9167 718.768 71.0326C718.768 71.1051 718.753 71.2066 718.724 71.3371C718.71 71.4675 718.695 71.569 718.681 71.6415C718.637 71.9025 718.594 72.0909 718.55 72.2069C718.521 72.3229 718.499 72.4243 718.485 72.5113C718.47 72.5983 718.463 72.736 718.463 72.9245V73.1854C718.463 73.3159 718.434 73.4681 718.376 73.6421C718.318 73.8016 718.231 73.8813 718.115 73.8813C718.014 73.8813 717.934 73.8016 717.876 73.6421C717.818 73.4826 717.76 73.2652 717.702 72.9897C717.644 72.6853 717.47 72.4461 717.18 72.2721C716.89 72.0837 716.397 71.9894 715.702 71.9894H713.505C713.186 71.9894 712.947 72.0329 712.788 72.1199C712.628 72.2069 712.527 72.4243 712.483 72.7723C712.44 73.1202 712.418 73.6928 712.418 74.4902V83.0361C712.418 83.558 712.57 83.9494 712.875 84.2104C713.179 84.4568 713.599 84.6308 714.136 84.7323C714.382 84.7758 714.564 84.8265 714.68 84.8845C714.795 84.9425 714.853 85.0222 714.853 85.1237C714.853 85.2107 714.795 85.2686 714.68 85.2976C714.564 85.3411 714.411 85.3629 714.223 85.3629C713.831 85.3629 713.505 85.3484 713.244 85.3194C712.998 85.3049 712.759 85.2904 712.527 85.2759C712.295 85.2614 712.012 85.2542 711.679 85.2542C711.316 85.2542 710.997 85.2614 710.722 85.2759C710.461 85.2904 710.185 85.3049 709.896 85.3194C709.62 85.3484 709.287 85.3629 708.895 85.3629ZM719.658 85.3194C719.368 85.3194 719.223 85.2397 719.223 85.0802C719.223 84.9497 719.389 84.8337 719.723 84.7323C719.94 84.6598 720.143 84.5655 720.332 84.4496C720.535 84.3336 720.643 84.1306 720.658 83.8407V72.9462C720.658 72.5548 720.593 72.2141 720.462 71.9242C720.332 71.6198 720.078 71.4386 719.701 71.3806C719.571 71.3516 719.505 71.2501 719.505 71.0761C719.505 70.9457 719.563 70.8587 719.679 70.8152C719.882 70.7427 720.121 70.663 720.397 70.576C720.687 70.489 720.984 70.3948 721.288 70.2933C721.593 70.1773 721.861 70.0686 722.093 69.9671C722.151 69.9381 722.194 69.9236 722.223 69.9236C722.267 69.9236 722.303 69.9381 722.332 69.9671C722.361 69.9961 722.376 70.0323 722.376 70.0758C722.376 70.1628 722.354 70.286 722.31 70.4455C722.281 70.605 722.252 70.8804 722.223 71.2718C722.194 71.6633 722.18 72.2504 722.18 73.0332V76.8169C722.18 77.0489 722.187 77.2156 722.202 77.3171C722.231 77.4185 722.274 77.52 722.332 77.6215C722.564 77.4475 722.847 77.2591 723.18 77.0561C723.528 76.8387 723.912 76.6502 724.333 76.4907C724.753 76.3313 725.188 76.2515 725.638 76.2515C726.348 76.2515 726.935 76.5342 727.399 77.0996C727.877 77.6505 728.116 78.3536 728.116 79.2089V83.7755C728.116 84.0654 728.211 84.2829 728.399 84.4278C728.588 84.5583 728.791 84.6598 729.008 84.7323C729.168 84.7758 729.291 84.8265 729.378 84.8845C729.465 84.928 729.508 84.9932 729.508 85.0802C729.508 85.2397 729.363 85.3194 729.073 85.3194C728.783 85.3194 728.559 85.3049 728.399 85.2759C728.254 85.2614 728.109 85.2469 727.964 85.2324C727.834 85.2179 727.638 85.2107 727.377 85.2107C727.131 85.2107 726.935 85.2179 726.79 85.2324C726.645 85.2469 726.493 85.2614 726.333 85.2759C726.188 85.3049 725.971 85.3194 725.681 85.3194C725.391 85.3194 725.246 85.2397 725.246 85.0802C725.246 84.9787 725.29 84.9135 725.377 84.8845C725.464 84.841 725.587 84.7902 725.746 84.7323C725.964 84.6598 726.159 84.5583 726.333 84.4278C726.507 84.2829 726.594 84.0654 726.594 83.7755V79.3394C726.594 78.977 726.486 78.6508 726.268 78.3608C726.065 78.0564 725.811 77.8172 725.507 77.6432C725.203 77.4693 724.891 77.3823 724.572 77.3823C724.297 77.3823 723.978 77.4258 723.615 77.5128C723.253 77.5853 722.97 77.7012 722.767 77.8607C722.535 78.0492 722.376 78.2449 722.289 78.4478C722.216 78.6508 722.18 78.977 722.18 79.4264V83.8407C722.194 84.1306 722.281 84.3336 722.441 84.4496C722.615 84.5655 722.811 84.6598 723.028 84.7323C723.188 84.7758 723.303 84.8265 723.376 84.8845C723.463 84.928 723.506 84.9932 723.506 85.0802C723.506 85.2397 723.361 85.3194 723.072 85.3194C722.782 85.3194 722.564 85.3049 722.419 85.2759C722.274 85.2614 722.136 85.2469 722.006 85.2324C721.876 85.2179 721.68 85.2107 721.419 85.2107C721.172 85.2107 720.969 85.2179 720.81 85.2324C720.665 85.2469 720.506 85.2614 720.332 85.2759C720.172 85.3049 719.947 85.3194 719.658 85.3194ZM734.632 85.5803C733.835 85.5803 733.139 85.3846 732.545 84.9932C731.951 84.6018 731.487 84.0509 731.153 83.3406C730.82 82.6157 730.653 81.7821 730.653 80.8398C730.653 79.999 730.842 79.2379 731.218 78.5566C731.61 77.8607 732.124 77.3026 732.762 76.8822C733.4 76.4617 734.096 76.2515 734.85 76.2515C735.43 76.2515 735.944 76.3675 736.394 76.5995C736.843 76.8314 737.191 77.1576 737.438 77.578C737.699 77.9839 737.829 78.4551 737.829 78.9915C737.829 79.4409 737.612 79.6656 737.177 79.6656H732.588C732.385 79.6656 732.24 79.7236 732.153 79.8395C732.081 79.941 732.045 80.1512 732.045 80.4702C732.045 81.166 732.197 81.8039 732.501 82.3838C732.806 82.9491 733.212 83.4058 733.719 83.7537C734.227 84.0871 734.785 84.2539 735.394 84.2539C735.828 84.2539 736.22 84.1741 736.568 84.0147C736.93 83.8407 737.249 83.5942 737.525 83.2753C737.583 83.2028 737.626 83.1593 737.655 83.1448C737.684 83.1158 737.72 83.1014 737.764 83.1014C737.88 83.1014 737.938 83.1738 737.938 83.3188C737.938 83.5942 737.807 83.8987 737.546 84.2321C737.329 84.5076 737.068 84.7468 736.764 84.9497C736.459 85.1527 736.126 85.3049 735.763 85.4064C735.401 85.5223 735.024 85.5803 734.632 85.5803ZM732.632 78.9915H734.611C734.959 78.9915 735.256 78.9842 735.502 78.9697C735.749 78.9552 735.988 78.9262 736.22 78.8827C736.292 78.8682 736.336 78.8248 736.35 78.7523C736.379 78.6653 736.394 78.5493 736.394 78.4043C736.394 77.9839 736.205 77.6288 735.828 77.3388C735.466 77.0344 735.031 76.8822 734.524 76.8822C734.19 76.8822 733.857 76.9836 733.523 77.1866C733.19 77.3751 732.915 77.6143 732.697 77.9042C732.48 78.1941 732.371 78.4841 732.371 78.774C732.371 78.919 732.458 78.9915 732.632 78.9915ZM743.784 85.3194C743.639 85.3194 743.53 85.2976 743.458 85.2542C743.385 85.2252 743.349 85.1672 743.349 85.0802C743.349 84.9642 743.392 84.8845 743.479 84.841C743.581 84.7975 743.704 84.7613 743.849 84.7323C744.183 84.6598 744.422 84.5583 744.567 84.4278C744.712 84.2829 744.784 84.0654 744.784 83.7755V77.6432C744.639 77.6432 744.473 77.6432 744.284 77.6432C744.096 77.6288 743.885 77.6143 743.653 77.5998C743.61 77.5853 743.545 77.5345 743.458 77.4475C743.385 77.3606 743.349 77.2808 743.349 77.2083C743.349 77.1793 743.371 77.1576 743.414 77.1431C743.458 77.1141 743.487 77.0924 743.501 77.0779C743.762 76.9474 743.987 76.8314 744.175 76.7299C744.364 76.6285 744.567 76.527 744.784 76.4255C744.784 75.1643 744.936 74.1132 745.241 73.2724C745.56 72.4316 745.966 71.7647 746.459 71.2718C746.951 70.7789 747.473 70.431 748.024 70.2281C748.575 70.0106 749.09 69.9019 749.568 69.9019C750.38 69.9019 750.982 70.0251 751.373 70.2715C751.764 70.518 751.96 70.8297 751.96 71.2066C751.96 71.4965 751.888 71.714 751.743 71.859C751.598 72.0039 751.424 72.0764 751.221 72.0764C751.09 72.0764 750.967 72.0257 750.851 71.9242C750.75 71.8227 750.626 71.7067 750.481 71.5763C750.293 71.3878 750.061 71.2138 749.786 71.0544C749.51 70.8804 749.133 70.7934 748.655 70.7934C747.974 70.7934 747.408 71.0906 746.959 71.685C746.524 72.2794 746.306 73.1927 746.306 74.4249V76.3385C746.306 76.4255 746.328 76.4835 746.372 76.5125C746.43 76.5415 746.488 76.556 746.546 76.556H749.264C749.336 76.556 749.401 76.5777 749.459 76.6212C749.517 76.6647 749.546 76.7227 749.546 76.7952C749.546 76.8967 749.532 77.0054 749.503 77.1214C749.488 77.2373 749.459 77.3388 749.416 77.4258C749.372 77.5418 749.307 77.5998 749.22 77.5998H746.72C746.546 77.5998 746.43 77.6288 746.372 77.6867C746.328 77.7302 746.306 77.7955 746.306 77.8824V83.7755C746.306 84.0654 746.401 84.2829 746.589 84.4278C746.778 84.5583 747.162 84.6598 747.742 84.7323C748.075 84.7758 748.242 84.8917 748.242 85.0802C748.242 85.1672 748.205 85.2252 748.133 85.2542C748.06 85.2976 747.952 85.3194 747.807 85.3194C747.372 85.3194 746.988 85.2976 746.654 85.2542C746.321 85.2252 745.966 85.2107 745.589 85.2107C745.342 85.2107 745.139 85.2179 744.98 85.2324C744.82 85.2469 744.654 85.2614 744.48 85.2759C744.306 85.3049 744.074 85.3194 743.784 85.3194ZM750.815 85.3194C750.671 85.3194 750.562 85.2976 750.489 85.2542C750.417 85.2252 750.381 85.1672 750.381 85.0802C750.381 84.9642 750.424 84.8917 750.511 84.8627C750.598 84.8192 750.721 84.7758 750.881 84.7323C751.156 84.6598 751.359 84.5583 751.49 84.4278C751.635 84.2829 751.707 84.1089 751.707 83.9059V79.2307C751.707 78.8392 751.649 78.4986 751.533 78.2086C751.417 77.9187 751.178 77.7375 750.815 77.665C750.758 77.6505 750.707 77.6143 750.663 77.5563C750.62 77.4983 750.598 77.4403 750.598 77.3823C750.598 77.2373 750.663 77.1504 750.794 77.1214C751.171 77.0054 751.562 76.8387 751.968 76.6212C752.388 76.3893 752.715 76.2008 752.947 76.0558C753.034 75.9978 753.099 75.9616 753.142 75.9471C753.2 75.9181 753.244 75.9036 753.273 75.9036C753.345 75.9036 753.381 75.9544 753.381 76.0558C753.381 76.0993 753.374 76.2081 753.36 76.382C753.36 76.556 753.352 76.7589 753.338 76.9909C753.338 77.2228 753.331 77.4548 753.316 77.6867C753.316 77.7157 753.331 77.7302 753.36 77.7302C753.592 77.4403 753.845 77.1866 754.121 76.9691C754.411 76.7517 754.701 76.5777 754.991 76.4472C755.295 76.3168 755.585 76.2515 755.86 76.2515C756.165 76.2515 756.411 76.3168 756.6 76.4472C756.803 76.5777 756.904 76.7444 756.904 76.9474C756.904 77.0924 756.861 77.2518 756.774 77.4258C756.701 77.5998 756.6 77.752 756.469 77.8824C756.339 78.0129 756.201 78.0782 756.056 78.0782C755.969 78.0782 755.875 78.0637 755.773 78.0347C755.672 77.9912 755.563 77.9404 755.447 77.8824C755.331 77.839 755.215 77.7955 755.099 77.752C754.983 77.7085 754.867 77.6867 754.751 77.6867C754.403 77.6867 754.063 77.81 753.729 78.0564C753.41 78.3029 753.251 78.7885 753.251 79.5134V83.9059C753.251 84.0944 753.352 84.2539 753.555 84.3843C753.758 84.5003 754.041 84.6163 754.403 84.7323C754.563 84.7758 754.686 84.8192 754.773 84.8627C754.86 84.9062 754.904 84.9787 754.904 85.0802C754.904 85.2397 754.759 85.3194 754.469 85.3194C754.034 85.3194 753.7 85.2976 753.468 85.2542C753.251 85.2252 752.954 85.2107 752.577 85.2107C752.33 85.2107 752.127 85.2179 751.968 85.2324C751.823 85.2469 751.664 85.2614 751.49 85.2759C751.33 85.3049 751.105 85.3194 750.815 85.3194ZM761.644 85.5803C760.847 85.5803 760.151 85.3846 759.557 84.9932C758.962 84.6018 758.499 84.0509 758.165 83.3406C757.832 82.6157 757.665 81.7821 757.665 80.8398C757.665 79.999 757.853 79.2379 758.23 78.5566C758.622 77.8607 759.136 77.3026 759.774 76.8822C760.412 76.4617 761.108 76.2515 761.862 76.2515C762.442 76.2515 762.956 76.3675 763.406 76.5995C763.855 76.8314 764.203 77.1576 764.45 77.578C764.71 77.9839 764.841 78.4551 764.841 78.9915C764.841 79.4409 764.623 79.6656 764.189 79.6656H759.6C759.397 79.6656 759.252 79.7236 759.165 79.8395C759.093 79.941 759.057 80.1512 759.057 80.4702C759.057 81.166 759.209 81.8039 759.513 82.3838C759.818 82.9491 760.224 83.4058 760.731 83.7537C761.238 84.0871 761.797 84.2539 762.405 84.2539C762.84 84.2539 763.232 84.1741 763.58 84.0147C763.942 83.8407 764.261 83.5942 764.537 83.2753C764.595 83.2028 764.638 83.1593 764.667 83.1448C764.696 83.1158 764.732 83.1014 764.776 83.1014C764.892 83.1014 764.95 83.1738 764.95 83.3188C764.95 83.5942 764.819 83.8987 764.558 84.2321C764.341 84.5076 764.08 84.7468 763.775 84.9497C763.471 85.1527 763.138 85.3049 762.775 85.4064C762.413 85.5223 762.036 85.5803 761.644 85.5803ZM759.644 78.9915H761.623C761.971 78.9915 762.268 78.9842 762.514 78.9697C762.761 78.9552 763 78.9262 763.232 78.8827C763.304 78.8682 763.348 78.8248 763.362 78.7523C763.391 78.6653 763.406 78.5493 763.406 78.4043C763.406 77.9839 763.217 77.6288 762.84 77.3388C762.478 77.0344 762.043 76.8822 761.536 76.8822C761.202 76.8822 760.869 76.9836 760.535 77.1866C760.202 77.3751 759.926 77.6143 759.709 77.9042C759.492 78.1941 759.383 78.4841 759.383 78.774C759.383 78.919 759.47 78.9915 759.644 78.9915ZM769.905 85.5803C769.108 85.5803 768.412 85.3846 767.818 84.9932C767.223 84.6018 766.759 84.0509 766.426 83.3406C766.092 82.6157 765.926 81.7821 765.926 80.8398C765.926 79.999 766.114 79.2379 766.491 78.5566C766.882 77.8607 767.397 77.3026 768.035 76.8822C768.673 76.4617 769.369 76.2515 770.123 76.2515C770.702 76.2515 771.217 76.3675 771.666 76.5995C772.116 76.8314 772.464 77.1576 772.71 77.578C772.971 77.9839 773.102 78.4551 773.102 78.9915C773.102 79.4409 772.884 79.6656 772.449 79.6656H767.861C767.658 79.6656 767.513 79.7236 767.426 79.8395C767.354 79.941 767.317 80.1512 767.317 80.4702C767.317 81.166 767.47 81.8039 767.774 82.3838C768.078 82.9491 768.484 83.4058 768.992 83.7537C769.499 84.0871 770.057 84.2539 770.666 84.2539C771.101 84.2539 771.493 84.1741 771.84 84.0147C772.203 83.8407 772.522 83.5942 772.797 83.2753C772.855 83.2028 772.899 83.1593 772.928 83.1448C772.957 83.1158 772.993 83.1014 773.036 83.1014C773.152 83.1014 773.21 83.1738 773.21 83.3188C773.21 83.5942 773.08 83.8987 772.819 84.2321C772.602 84.5076 772.341 84.7468 772.036 84.9497C771.732 85.1527 771.398 85.3049 771.036 85.4064C770.673 85.5223 770.297 85.5803 769.905 85.5803ZM767.905 78.9915H769.883C770.231 78.9915 770.528 78.9842 770.775 78.9697C771.021 78.9552 771.261 78.9262 771.493 78.8827C771.565 78.8682 771.608 78.8248 771.623 78.7523C771.652 78.6653 771.666 78.5493 771.666 78.4043C771.666 77.9839 771.478 77.6288 771.101 77.3388C770.739 77.0344 770.304 76.8822 769.796 76.8822C769.463 76.8822 769.13 76.9836 768.796 77.1866C768.463 77.3751 768.187 77.6143 767.97 77.9042C767.752 78.1941 767.644 78.4841 767.644 78.774C767.644 78.919 767.731 78.9915 767.905 78.9915ZM781.297 85.6673C781.268 85.6673 781.217 85.6383 781.145 85.5803C781.087 85.5223 781.058 85.4789 781.058 85.4499C781.058 85.3049 781.072 85.1019 781.101 84.841C781.145 84.5655 781.167 84.3336 781.167 84.1451V84.0147C780.949 84.3481 780.601 84.6888 780.123 85.0367C779.644 85.3846 779.043 85.5586 778.318 85.5586C777.492 85.5586 776.774 85.3411 776.165 84.9062C775.571 84.4713 775.107 83.9132 774.774 83.2318C774.455 82.5505 774.295 81.8474 774.295 81.1225C774.295 80.2817 774.491 79.4916 774.882 78.7523C775.274 78.0129 775.832 77.4113 776.557 76.9474C777.296 76.4835 778.173 76.2515 779.188 76.2515C779.478 76.2515 779.768 76.2805 780.058 76.3385C780.362 76.382 780.594 76.4328 780.754 76.4907C780.884 76.5342 780.978 76.556 781.036 76.556C781.138 76.556 781.188 76.382 781.188 76.0341V72.9462C781.188 72.3519 781.094 71.9532 780.906 71.7502C780.717 71.5473 780.449 71.4168 780.101 71.3588C779.971 71.3298 779.905 71.2356 779.905 71.0761C779.905 70.9457 779.963 70.8587 780.079 70.8152C780.717 70.6557 781.217 70.5035 781.58 70.3585C781.942 70.2136 782.225 70.0976 782.428 70.0106C782.486 69.9816 782.537 69.9671 782.58 69.9671C782.638 69.9526 782.682 69.9454 782.711 69.9454C782.798 69.9454 782.848 69.9889 782.863 70.0758C782.863 70.1628 782.848 70.315 782.819 70.5325C782.805 70.7354 782.783 71.0399 782.754 71.4458C782.725 71.8517 782.711 72.3809 782.711 73.0332V82.8622C782.711 83.355 782.747 83.7175 782.819 83.9494C782.892 84.1669 783.008 84.2756 783.167 84.2756C783.24 84.2756 783.363 84.2684 783.537 84.2539C783.725 84.2394 783.914 84.2249 784.102 84.2104C784.363 84.1959 784.494 84.2611 784.494 84.4061C784.494 84.5076 784.457 84.6018 784.385 84.6888C784.327 84.7613 784.262 84.7975 784.189 84.7975C783.783 84.8555 783.385 84.9425 782.993 85.0584C782.602 85.1599 782.152 85.3194 781.645 85.5368C781.529 85.5948 781.449 85.6311 781.406 85.6456C781.377 85.6601 781.341 85.6673 781.297 85.6673ZM779.101 84.4278C779.478 84.4278 779.847 84.3336 780.21 84.1451C780.572 83.9422 780.891 83.6812 781.167 83.3623L781.188 79.4481C781.188 79.0567 781.072 78.6725 780.84 78.2956C780.623 77.9187 780.311 77.6143 779.905 77.3823C779.514 77.1359 779.05 77.0126 778.514 77.0126C778.18 77.0126 777.803 77.1141 777.383 77.3171C776.963 77.52 776.6 77.8824 776.296 78.4043C775.991 78.9117 775.839 79.6511 775.839 80.6224C775.839 81.4487 775.962 82.1156 776.209 82.623C776.455 83.1158 776.752 83.4928 777.1 83.7537C777.463 84.0147 777.825 84.1959 778.188 84.2974C778.564 84.3843 778.869 84.4278 779.101 84.4278ZM789.623 85.5586C788.811 85.5586 788.079 85.3701 787.426 84.9932C786.774 84.6163 786.252 84.1016 785.861 83.4493C785.484 82.7824 785.295 82.0286 785.295 81.1878C785.295 80.5789 785.411 79.9845 785.643 79.4046C785.89 78.8248 786.23 78.2956 786.665 77.8172C787.1 77.3388 787.608 76.9619 788.187 76.6864C788.767 76.3965 789.391 76.2515 790.057 76.2515C790.898 76.2515 791.652 76.4545 792.319 76.8604C793 77.2663 793.537 77.8027 793.928 78.4696C794.334 79.1219 794.537 79.8395 794.537 80.6224C794.537 81.4632 794.349 82.2605 793.972 83.0144C793.609 83.7682 793.066 84.3843 792.341 84.8627C791.616 85.3266 790.71 85.5586 789.623 85.5586ZM790.079 84.9062C790.572 84.9062 791.014 84.812 791.406 84.6235C791.797 84.4351 792.102 84.1306 792.319 83.7102C792.493 83.3768 792.609 82.9709 792.667 82.4925C792.725 82.0141 792.754 81.5647 792.754 81.1443C792.754 80.4484 792.623 79.7815 792.363 79.1437C792.116 78.4913 791.761 77.9622 791.297 77.5563C790.848 77.1359 790.311 76.9256 789.688 76.9256C789.296 76.9256 788.941 76.9909 788.622 77.1214C788.318 77.2373 788.035 77.462 787.774 77.7955C787.484 78.1579 787.296 78.6 787.209 79.1219C787.122 79.6438 787.078 80.1657 787.078 80.6876C787.078 81.398 787.209 82.0793 787.47 82.7317C787.731 83.3695 788.086 83.8914 788.535 84.2974C788.985 84.7033 789.499 84.9062 790.079 84.9062ZM796.257 85.3194C796.142 85.3194 796.04 85.3049 795.953 85.2759C795.866 85.2469 795.823 85.1817 795.823 85.0802C795.823 84.9787 795.866 84.9062 795.953 84.8627C796.055 84.8192 796.178 84.7758 796.323 84.7323C796.526 84.6598 796.729 84.58 796.932 84.4931C797.149 84.3916 797.258 84.1959 797.258 83.9059V79.2307C797.258 78.8392 797.214 78.4986 797.127 78.2086C797.04 77.9042 796.808 77.723 796.431 77.665C796.373 77.6505 796.323 77.6215 796.279 77.578C796.25 77.5345 796.236 77.4693 796.236 77.3823C796.236 77.2373 796.294 77.1504 796.41 77.1214C796.801 77.0199 797.113 76.9184 797.345 76.8169C797.577 76.7009 797.78 76.5777 797.954 76.4472C798.142 76.3023 798.367 76.1501 798.628 75.9906C798.657 75.9761 798.686 75.9616 798.715 75.9471C798.744 75.9181 798.78 75.9036 798.823 75.9036C798.91 75.9036 798.954 75.9544 798.954 76.0558C798.954 76.1573 798.932 76.3675 798.889 76.6864C798.86 76.9909 798.845 77.2446 798.845 77.4475C798.845 77.5925 798.86 77.6795 798.889 77.7085H798.932C799.266 77.3896 799.701 77.0706 800.237 76.7517C800.788 76.4183 801.484 76.2515 802.324 76.2515C802.846 76.2515 803.281 76.3675 803.629 76.5995C803.977 76.8169 804.267 77.2011 804.499 77.752H804.564C805.028 77.3316 805.557 76.9764 806.152 76.6864C806.746 76.3965 807.398 76.2515 808.109 76.2515C808.587 76.2515 808.986 76.3965 809.305 76.6864C809.624 76.9764 809.863 77.3533 810.022 77.8172C810.196 78.2811 810.283 78.7668 810.283 79.2742V83.9059C810.283 84.1959 810.385 84.3916 810.588 84.4931C810.791 84.58 811.001 84.6598 811.218 84.7323C811.363 84.7758 811.479 84.8192 811.566 84.8627C811.668 84.9062 811.718 84.9787 811.718 85.0802C811.718 85.1672 811.682 85.2252 811.61 85.2542C811.552 85.2976 811.443 85.3194 811.284 85.3194C810.994 85.3194 810.769 85.3049 810.609 85.2759C810.45 85.2614 810.298 85.2469 810.153 85.2324C810.022 85.2179 809.827 85.2107 809.566 85.2107C809.319 85.2107 809.116 85.2179 808.957 85.2324C808.797 85.2469 808.631 85.2614 808.457 85.2759C808.283 85.3049 808.051 85.3194 807.761 85.3194C807.63 85.3194 807.522 85.2976 807.435 85.2542C807.362 85.2252 807.326 85.1672 807.326 85.0802C807.326 84.9642 807.369 84.8845 807.456 84.841C807.558 84.7975 807.681 84.7613 807.826 84.7323C808.058 84.6743 808.268 84.5945 808.457 84.4931C808.66 84.3916 808.761 84.1959 808.761 83.9059V79.3394C808.761 78.9915 808.681 78.6653 808.522 78.3608C808.362 78.0419 808.152 77.781 807.891 77.578C807.63 77.3751 807.34 77.2736 807.021 77.2736C806.659 77.2736 806.318 77.3171 805.999 77.404C805.695 77.491 805.405 77.6432 805.13 77.8607C804.724 78.1796 804.521 78.7015 804.521 79.4264V83.9059C804.521 84.1959 804.629 84.3916 804.847 84.4931C805.064 84.5945 805.282 84.6743 805.499 84.7323C805.644 84.7613 805.76 84.8047 805.847 84.8627C805.949 84.9062 805.999 84.9787 805.999 85.0802C805.999 85.1672 805.963 85.2252 805.891 85.2542C805.818 85.2976 805.71 85.3194 805.565 85.3194C805.275 85.3194 805.043 85.3049 804.869 85.2759C804.709 85.2614 804.55 85.2469 804.39 85.2324C804.245 85.2179 804.042 85.2107 803.781 85.2107C803.535 85.2107 803.332 85.2179 803.173 85.2324C803.013 85.2469 802.846 85.2614 802.672 85.2759C802.498 85.3049 802.266 85.3194 801.977 85.3194C801.861 85.3194 801.759 85.2976 801.672 85.2542C801.585 85.2252 801.542 85.1672 801.542 85.0802C801.542 84.9642 801.592 84.8917 801.694 84.8627C801.81 84.8192 801.926 84.7758 802.042 84.7323C802.259 84.6598 802.469 84.58 802.672 84.4931C802.89 84.3916 802.999 84.1959 802.999 83.9059V79.3394C802.999 78.9915 802.919 78.6653 802.759 78.3608C802.6 78.0419 802.39 77.781 802.129 77.578C801.868 77.3751 801.578 77.2736 801.259 77.2736C800.897 77.2736 800.556 77.3171 800.237 77.404C799.932 77.491 799.643 77.6432 799.367 77.8607C798.976 78.1506 798.78 78.6725 798.78 79.4264V83.9059C798.78 84.1959 798.881 84.3916 799.084 84.4931C799.287 84.58 799.498 84.6598 799.715 84.7323C799.831 84.7758 799.94 84.8192 800.041 84.8627C800.157 84.8917 800.215 84.9642 800.215 85.0802C800.215 85.1672 800.172 85.2252 800.085 85.2542C800.012 85.2976 799.911 85.3194 799.78 85.3194C799.49 85.3194 799.258 85.3049 799.084 85.2759C798.925 85.2614 798.773 85.2469 798.628 85.2324C798.483 85.2179 798.28 85.2107 798.019 85.2107C797.772 85.2107 797.569 85.2179 797.41 85.2324C797.265 85.2469 797.106 85.2614 796.932 85.2759C796.772 85.3049 796.547 85.3194 796.257 85.3194ZM708.352 109.559C707.641 109.559 707.083 109.341 706.677 108.906C706.286 108.471 706.09 107.826 706.09 106.971V101.926C706.09 101.81 706.047 101.73 705.96 101.687C705.873 101.629 705.684 101.6 705.394 101.6H705.264C705.191 101.6 705.126 101.556 705.068 101.469C705.025 101.368 705.003 101.266 705.003 101.165C705.003 101.136 705.025 101.092 705.068 101.034C705.112 100.976 705.141 100.94 705.155 100.926C705.445 100.723 705.706 100.52 705.938 100.317C706.184 100.114 706.402 99.9181 706.59 99.7297C706.793 99.5267 706.96 99.3455 707.09 99.186C707.163 99.1135 707.221 99.0555 707.264 99.0121C707.322 98.9541 707.388 98.9251 707.46 98.9251C707.533 98.9251 707.598 98.9396 707.656 98.9686C707.728 98.9976 707.757 99.0628 707.743 99.1643L707.634 100.143C707.619 100.302 707.656 100.411 707.743 100.469C707.83 100.527 707.967 100.556 708.156 100.556H710.635C710.693 100.556 710.744 100.607 710.787 100.708C710.831 100.795 710.852 100.904 710.852 101.034C710.852 101.165 710.831 101.295 710.787 101.426C710.744 101.542 710.693 101.6 710.635 101.6H708.482C708.12 101.6 707.88 101.629 707.764 101.687C707.663 101.745 707.612 101.919 707.612 102.209V106.492C707.612 107.072 707.735 107.529 707.982 107.862C708.228 108.196 708.584 108.363 709.047 108.363C709.468 108.363 709.794 108.334 710.026 108.276C710.258 108.203 710.468 108.102 710.657 107.971C710.686 107.942 710.715 107.928 710.744 107.928C710.802 107.928 710.838 107.964 710.852 108.036C710.881 108.094 710.896 108.16 710.896 108.232C710.896 108.305 710.773 108.45 710.526 108.667C710.294 108.884 709.982 109.087 709.591 109.276C709.214 109.464 708.801 109.559 708.352 109.559ZM716.168 109.559C715.356 109.559 714.624 109.37 713.972 108.993C713.319 108.616 712.798 108.102 712.406 107.449C712.029 106.782 711.841 106.029 711.841 105.188C711.841 104.579 711.957 103.985 712.189 103.405C712.435 102.825 712.776 102.296 713.211 101.817C713.646 101.339 714.153 100.962 714.733 100.686C715.313 100.397 715.936 100.252 716.603 100.252C717.444 100.252 718.198 100.454 718.864 100.86C719.546 101.266 720.082 101.803 720.474 102.47C720.88 103.122 721.083 103.84 721.083 104.622C721.083 105.463 720.894 106.261 720.517 107.014C720.155 107.768 719.611 108.384 718.886 108.863C718.161 109.327 717.255 109.559 716.168 109.559ZM716.625 108.906C717.118 108.906 717.56 108.812 717.951 108.624C718.343 108.435 718.647 108.131 718.864 107.71C719.038 107.377 719.154 106.971 719.212 106.492C719.27 106.014 719.299 105.565 719.299 105.144C719.299 104.448 719.169 103.782 718.908 103.144C718.662 102.491 718.306 101.962 717.842 101.556C717.393 101.136 716.857 100.926 716.233 100.926C715.842 100.926 715.487 100.991 715.168 101.121C714.863 101.237 714.581 101.462 714.32 101.795C714.03 102.158 713.841 102.6 713.754 103.122C713.667 103.644 713.624 104.166 713.624 104.688C713.624 105.398 713.754 106.079 714.015 106.732C714.276 107.37 714.631 107.891 715.081 108.297C715.53 108.703 716.045 108.906 716.625 108.906ZM731.832 109.559C731.513 109.559 731.194 109.53 730.875 109.472C730.556 109.414 730.251 109.348 729.961 109.276C729.643 109.189 729.36 109.109 729.113 109.037C728.881 108.964 728.729 108.928 728.657 108.928C728.57 108.928 728.483 108.957 728.396 109.015C728.323 109.073 728.251 109.138 728.178 109.211C728.106 109.283 728.041 109.319 727.983 109.319C727.925 109.319 727.859 109.298 727.787 109.254C727.714 109.196 727.678 109.131 727.678 109.058C727.678 108.928 727.7 108.703 727.743 108.384C727.801 108.065 727.83 107.768 727.83 107.493V96.9462C727.83 96.5693 727.736 96.2431 727.548 95.9677C727.359 95.6922 727.12 95.4893 726.83 95.3588C726.772 95.3298 726.707 95.2936 726.634 95.2501C726.576 95.1921 726.547 95.1196 726.547 95.0326C726.547 94.9602 726.576 94.9094 726.634 94.8804C726.692 94.8514 726.75 94.8297 726.808 94.8152C726.997 94.7717 727.251 94.692 727.569 94.576C727.903 94.46 728.215 94.344 728.505 94.2281C728.794 94.1121 728.99 94.0323 729.092 93.9889C729.179 93.9454 729.244 93.9236 729.287 93.9236C729.316 93.9236 729.345 93.9381 729.374 93.9671C729.403 93.9961 729.418 94.0323 729.418 94.0758C729.418 94.1338 729.403 94.3803 729.374 94.8152C729.36 95.2356 729.353 95.7502 729.353 96.3591V100.817C729.353 101.092 729.367 101.281 729.396 101.382C729.425 101.469 729.476 101.52 729.548 101.535C729.998 101.158 730.52 100.853 731.114 100.621C731.708 100.375 732.245 100.252 732.723 100.252C733.462 100.252 734.122 100.44 734.702 100.817C735.296 101.194 735.767 101.708 736.115 102.361C736.463 102.999 736.637 103.724 736.637 104.535C736.637 105.521 736.434 106.398 736.028 107.167C735.623 107.92 735.057 108.508 734.332 108.928C733.622 109.348 732.788 109.559 731.832 109.559ZM732.332 108.884C732.883 108.884 733.354 108.718 733.745 108.384C734.151 108.036 734.463 107.573 734.68 106.993C734.898 106.398 735.006 105.739 735.006 105.014C735.006 104.448 734.898 103.869 734.68 103.274C734.477 102.68 734.151 102.18 733.702 101.774C733.267 101.368 732.701 101.165 732.006 101.165C731.426 101.165 730.918 101.259 730.483 101.448C730.048 101.636 729.672 101.875 729.353 102.165V106.384C729.353 106.891 729.49 107.333 729.766 107.71C730.056 108.087 730.425 108.377 730.875 108.58C731.339 108.783 731.824 108.884 732.332 108.884ZM745.35 109.667C745.248 109.667 745.197 109.609 745.197 109.493C745.197 109.348 745.212 109.138 745.241 108.863C745.284 108.573 745.306 108.334 745.306 108.145C745.306 108.116 745.306 108.094 745.306 108.08C745.306 108.051 745.306 108.029 745.306 108.015C744.741 108.566 744.168 108.964 743.588 109.211C743.023 109.443 742.399 109.559 741.718 109.559C741.254 109.559 740.834 109.457 740.457 109.254C740.08 109.066 739.783 108.783 739.565 108.406C739.348 108.015 739.239 107.536 739.239 106.971V102.557C739.239 102.238 739.167 101.984 739.022 101.795C738.877 101.607 738.637 101.448 738.304 101.317C738.232 101.288 738.166 101.252 738.108 101.208C738.05 101.165 738.021 101.085 738.021 100.969C738.021 100.839 738.05 100.752 738.108 100.708C738.181 100.665 738.261 100.636 738.348 100.621C738.84 100.592 739.217 100.556 739.478 100.512C739.754 100.454 740.094 100.375 740.5 100.273C740.544 100.259 740.573 100.252 740.587 100.252C740.616 100.252 740.645 100.252 740.674 100.252C740.834 100.252 740.906 100.353 740.892 100.556C740.848 100.889 740.812 101.172 740.783 101.404C740.769 101.622 740.761 101.897 740.761 102.23V106.471C740.761 106.819 740.848 107.145 741.022 107.449C741.196 107.739 741.421 107.978 741.696 108.167C741.986 108.355 742.283 108.45 742.588 108.45C742.965 108.45 743.291 108.428 743.566 108.384C743.856 108.341 744.139 108.218 744.415 108.015C744.574 107.899 744.777 107.71 745.023 107.449C745.27 107.188 745.393 106.833 745.393 106.384V102.404C745.393 102.1 745.299 101.875 745.11 101.73C744.936 101.571 744.733 101.462 744.501 101.404C744.27 101.346 744.081 101.317 743.936 101.317C743.806 101.317 743.697 101.295 743.61 101.252C743.523 101.194 743.479 101.092 743.479 100.947C743.479 100.817 743.523 100.73 743.61 100.686C743.711 100.643 743.82 100.621 743.936 100.621C744.386 100.607 744.755 100.592 745.045 100.578C745.35 100.549 745.618 100.512 745.85 100.469C746.096 100.411 746.35 100.346 746.611 100.273C746.64 100.259 746.676 100.252 746.72 100.252C746.763 100.237 746.799 100.23 746.828 100.23C747.017 100.23 747.111 100.31 747.111 100.469C747.111 100.483 747.104 100.512 747.089 100.556C747.089 100.585 747.082 100.621 747.067 100.665C747.053 100.708 747.031 100.831 747.002 101.034C746.988 101.237 746.966 101.448 746.937 101.665C746.922 101.882 746.915 102.049 746.915 102.165V107.188C746.915 107.58 746.951 107.862 747.024 108.036C747.111 108.196 747.205 108.276 747.307 108.276C747.423 108.276 747.589 108.268 747.807 108.254C748.039 108.225 748.205 108.21 748.307 108.21C748.379 108.21 748.452 108.225 748.524 108.254C748.597 108.283 748.633 108.363 748.633 108.493C748.633 108.609 748.604 108.689 748.546 108.732C748.488 108.761 748.416 108.783 748.329 108.797C747.763 108.87 747.278 108.979 746.872 109.124C746.466 109.269 746.103 109.406 745.784 109.537C745.741 109.551 745.676 109.573 745.589 109.602C745.502 109.646 745.422 109.667 745.35 109.667ZM749.815 109.319C749.684 109.319 749.576 109.298 749.489 109.254C749.416 109.225 749.38 109.167 749.38 109.08C749.38 108.964 749.431 108.884 749.532 108.841C749.648 108.797 749.764 108.761 749.88 108.732C750.185 108.66 750.416 108.573 750.576 108.471C750.735 108.355 750.815 108.167 750.815 107.906V103.187C750.815 102.796 750.743 102.448 750.598 102.143C750.467 101.839 750.214 101.658 749.837 101.6C749.764 101.585 749.706 101.556 749.663 101.513C749.634 101.469 749.619 101.404 749.619 101.317C749.619 101.158 749.684 101.071 749.815 101.056C750.395 100.926 750.873 100.752 751.25 100.534C751.627 100.302 751.91 100.114 752.098 99.9689C752.229 99.8674 752.33 99.8166 752.403 99.8166C752.49 99.8166 752.533 99.8529 752.533 99.9254C752.533 100.041 752.511 100.273 752.468 100.621C752.439 100.955 752.41 101.332 752.381 101.752C752.352 102.158 752.337 102.528 752.337 102.861V107.906C752.337 108.152 752.417 108.334 752.577 108.45C752.75 108.566 752.982 108.66 753.272 108.732C753.388 108.761 753.497 108.797 753.599 108.841C753.715 108.884 753.773 108.964 753.773 109.08C753.773 109.24 753.628 109.319 753.338 109.319C753.062 109.319 752.837 109.305 752.664 109.276C752.504 109.261 752.345 109.247 752.185 109.232C752.04 109.218 751.837 109.211 751.576 109.211C751.33 109.211 751.127 109.218 750.967 109.232C750.808 109.247 750.648 109.261 750.489 109.276C750.329 109.305 750.105 109.319 749.815 109.319ZM751.554 98.0335C751.25 98.0335 750.989 97.932 750.772 97.7291C750.569 97.5116 750.467 97.2507 750.467 96.9462C750.467 96.6273 750.569 96.3664 750.772 96.1634C750.989 95.9459 751.25 95.8372 751.554 95.8372C751.873 95.8372 752.134 95.9459 752.337 96.1634C752.555 96.3664 752.664 96.6273 752.664 96.9462C752.664 97.2507 752.555 97.5116 752.337 97.7291C752.134 97.932 751.873 98.0335 751.554 98.0335ZM755.036 109.319C754.964 109.319 754.87 109.305 754.754 109.276C754.652 109.261 754.601 109.211 754.601 109.124C754.601 109.008 754.652 108.928 754.754 108.884C754.87 108.826 754.986 108.776 755.102 108.732C755.319 108.66 755.529 108.58 755.732 108.493C755.935 108.392 756.037 108.196 756.037 107.906V96.9462C756.037 96.5258 755.957 96.1779 755.797 95.9025C755.652 95.6125 755.399 95.4313 755.036 95.3588C754.92 95.3298 754.862 95.2356 754.862 95.0761C754.862 94.9312 754.913 94.8442 755.015 94.8152C755.391 94.7282 755.718 94.6412 755.993 94.5542C756.269 94.4528 756.522 94.3513 756.754 94.2498C757.001 94.1483 757.24 94.0541 757.472 93.9671C757.53 93.9381 757.573 93.9236 757.602 93.9236C757.631 93.9236 757.653 93.9454 757.668 93.9889C757.697 94.0179 757.711 94.0468 757.711 94.0758C757.711 94.2063 757.682 94.489 757.624 94.9239C757.581 95.3443 757.559 96.0474 757.559 97.0332V107.906C757.559 108.196 757.66 108.392 757.863 108.493C758.066 108.58 758.276 108.66 758.494 108.732C758.61 108.776 758.719 108.826 758.82 108.884C758.936 108.928 758.994 109.008 758.994 109.124C758.994 109.211 758.936 109.261 758.82 109.276C758.719 109.305 758.632 109.319 758.559 109.319C758.284 109.319 758.059 109.305 757.885 109.276C757.725 109.261 757.566 109.247 757.407 109.232C757.262 109.218 757.059 109.211 756.798 109.211C756.551 109.211 756.348 109.218 756.189 109.232C756.029 109.247 755.87 109.261 755.71 109.276C755.551 109.305 755.326 109.319 755.036 109.319ZM767.175 109.667C767.146 109.667 767.096 109.638 767.023 109.58C766.965 109.522 766.936 109.479 766.936 109.45C766.936 109.305 766.951 109.102 766.98 108.841C767.023 108.566 767.045 108.334 767.045 108.145V108.015C766.827 108.348 766.48 108.689 766.001 109.037C765.523 109.385 764.921 109.559 764.196 109.559C763.37 109.559 762.652 109.341 762.043 108.906C761.449 108.471 760.985 107.913 760.652 107.232C760.333 106.55 760.173 105.847 760.173 105.123C760.173 104.282 760.369 103.492 760.76 102.752C761.152 102.013 761.71 101.411 762.435 100.947C763.174 100.483 764.051 100.252 765.066 100.252C765.356 100.252 765.646 100.281 765.936 100.339C766.24 100.382 766.472 100.433 766.632 100.491C766.762 100.534 766.856 100.556 766.914 100.556C767.016 100.556 767.067 100.382 767.067 100.034V96.9462C767.067 96.3519 766.972 95.9532 766.784 95.7502C766.595 95.5473 766.327 95.4168 765.979 95.3588C765.849 95.3298 765.784 95.2356 765.784 95.0761C765.784 94.9457 765.842 94.8587 765.958 94.8152C766.595 94.6557 767.096 94.5035 767.458 94.3585C767.82 94.2136 768.103 94.0976 768.306 94.0106C768.364 93.9816 768.415 93.9671 768.458 93.9671C768.516 93.9526 768.56 93.9454 768.589 93.9454C768.676 93.9454 768.727 93.9889 768.741 94.0758C768.741 94.1628 768.727 94.315 768.698 94.5325C768.683 94.7354 768.661 95.0399 768.632 95.4458C768.603 95.8517 768.589 96.3809 768.589 97.0332V106.862C768.589 107.355 768.625 107.717 768.698 107.949C768.77 108.167 768.886 108.276 769.045 108.276C769.118 108.276 769.241 108.268 769.415 108.254C769.604 108.239 769.792 108.225 769.981 108.21C770.241 108.196 770.372 108.261 770.372 108.406C770.372 108.508 770.336 108.602 770.263 108.689C770.205 108.761 770.14 108.797 770.068 108.797C769.662 108.855 769.263 108.942 768.872 109.058C768.48 109.16 768.031 109.319 767.523 109.537C767.407 109.595 767.328 109.631 767.284 109.646C767.255 109.66 767.219 109.667 767.175 109.667ZM764.979 108.428C765.356 108.428 765.726 108.334 766.088 108.145C766.451 107.942 766.769 107.681 767.045 107.362L767.067 103.448C767.067 103.057 766.951 102.673 766.719 102.296C766.501 101.919 766.19 101.614 765.784 101.382C765.392 101.136 764.928 101.013 764.392 101.013C764.059 101.013 763.682 101.114 763.261 101.317C762.841 101.52 762.478 101.882 762.174 102.404C761.869 102.912 761.717 103.651 761.717 104.622C761.717 105.449 761.84 106.116 762.087 106.623C762.333 107.116 762.631 107.493 762.978 107.754C763.341 108.015 763.703 108.196 764.066 108.297C764.443 108.384 764.747 108.428 764.979 108.428ZM772.913 109.559C772.594 109.559 772.311 109.443 772.065 109.211C771.833 108.964 771.717 108.682 771.717 108.363C771.717 108.029 771.833 107.746 772.065 107.515C772.311 107.283 772.594 107.167 772.913 107.167C773.247 107.167 773.529 107.283 773.761 107.515C773.993 107.746 774.109 108.029 774.109 108.363C774.109 108.682 773.993 108.964 773.761 109.211C773.529 109.443 773.247 109.559 772.913 109.559Z" fill="white"/>
</svg>
